<?xml version="1.0" encoding="UTF-8" standalone="no"?>
<svg width="223px" height="60px" viewBox="0 0 223 60" version="1.1" xmlns="http://www.w3.org/2000/svg" xmlns:xlink="http://www.w3.org/1999/xlink">
    <!-- Generator: sketchtool 41.2 (35397) - http://www.bohemiancoding.com/sketch -->
    <title>67BC7DFB-C2FC-41D5-8739-FD9D02FD3BD3</title>
    <desc>Created with sketchtool.</desc>
    <defs></defs>
    <g id="Page-1" stroke="none" stroke-width="1" fill="none" fill-rule="evenodd">
        <g id="Desktop_HomepageV1-Copy" transform="translate(-239.000000, -26.000000)">
            <g id="Page-1-Copy-10" transform="translate(239.000000, 26.000000)">
                <g id="Group-3" transform="translate(0.000000, 0.087807)" fill="#E6E6E7">
                    <path d="M54.5930074,19.72778 C50.3242156,23.9409148 46.7971561,25.0817209 41.4801499,27.5994562 C38.362953,29.0362123 35.1812576,30.5148245 32.0109982,31.952263 L32.0107694,31.952263 C33.7638925,26.2816716 36.4822053,20.9093049 39.7878658,15.9964453 C41.4748894,13.4891741 42.9258761,12.133173 45.2231192,10.1379565 C48.0868966,7.6509308 53.0852987,5.21645273 56.1791664,8.73805196 C57.4791992,10.218029 57.8906628,12.2805792 57.6157438,14.235987 C57.2687787,16.7048143 56.3310351,18.012135 54.5930074,19.72778 M63.5464002,19.0426139 C64.6538525,17.598806 65.5966279,15.935936 66.2663141,14.3069603 C66.4321346,13.9036404 66.4968617,13.4452707 66.5691366,13.0135159 C66.6501028,12.529896 66.6876125,12.0399067 66.6921869,11.5499173 C66.7498238,5.32291281 60.8747458,0.22056344 53.5694946,0.153684674 L52.1491561,0.140718383 C42.6214525,0.0533665253 35.9961797,6.01717809 32.3325756,9.63295354 C24.6913376,17.175013 19.6300382,26.958876 18.2263961,37.8439638 C16.3609725,38.5516503 14.4797674,39.219528 12.5766053,39.8180248 C10.8612207,40.3571495 9.12708123,40.8416793 7.37006995,41.2238437 C5.84246277,41.5559628 4.29381354,41.8136962 2.73327097,41.9208387 C1.97895918,41.9727039 1.23128021,41.9849878 0.477425846,41.9276631 C0.136864821,41.9017305 0.00214994872,42.6483159 9.14871795e-05,42.867378 C-0.0113444103,44.1080474 1.40121764,45.9035375 5.32121456,45.9394791 C8.42903405,45.967914 12.9663407,44.9881628 17.8561017,43.5800691 C17.8554156,43.425156 17.8556443,43.2700155 17.8570166,43.11442 C17.8064699,48.5934742 19.0168453,53.5486448 21.3300987,56.5393085 C22.8336905,58.4822049 25.7786628,59.2776983 28.1120433,59.5163235 C31.1222002,59.8241023 34.2334505,59.2483535 37.1436576,58.2654176 C43.3181274,56.1792096 48.9027335,52.8027419 54.1094976,48.923091 C54.8237838,48.3907906 55.5158843,47.8291455 56.2324576,47.2988924 C56.7255735,46.9340164 57.2051951,46.5215974 57.6905346,46.1362483 C58.2625582,45.6828831 59.1550156,44.8960339 59.6863274,44.3948981 C59.9123007,44.181523 60.1371305,43.9601861 60.3258228,43.7135991 C60.5936515,43.3637367 60.6993192,42.9117364 60.680793,42.4756595 C60.6730166,42.2927666 60.6716443,42.0568711 60.579471,41.8933138 C60.5449346,41.8316671 60.4953028,41.7866263 60.4337776,41.7511396 C60.3143869,41.6817585 60.2441705,41.7434053 60.1263807,41.8005025 C59.6302915,42.0409475 59.1438084,42.3009558 58.6614423,42.5680159 C58.1289869,42.862601 57.5821223,43.1294336 57.0341141,43.3926265 C56.5249879,43.6371662 56.0359889,43.9219697 55.5227458,44.1551355 C54.5850023,44.5812032 53.6735612,45.04526 52.7486258,45.4927108 C52.2882166,45.7154125 51.8259776,45.9335647 51.3582494,46.1396605 C48.2275582,47.5190919 45.097553,48.917404 41.8470135,49.9924688 C38.5047582,51.0982432 33.2849571,52.554335 31.063191,48.6457944 C30.2057274,47.1373825 30.1910894,45.2597725 30.2066423,43.5716524 C30.2199079,42.1687906 30.3205438,40.7732082 30.4950556,39.3912745 C32.5651817,38.6235336 34.6355366,37.8244006 36.6782166,37.0000174 C40.375671,35.5075291 44.1495171,34.0230025 47.9812289,32.5332438 C50.057073,31.7263765 52.0620146,30.8608197 54.1813151,30.1736063 C56.0170053,29.5785218 57.8526956,28.9832098 59.6881571,28.3881252 C61.7411294,27.7225223 63.7968464,27.2025057 65.9220935,26.8997315 C70.3304033,26.2712076 74.6534012,26.3867668 79.0486741,27.0576018 C81.0209089,27.3583287 82.9771335,27.7561891 84.9168905,28.2200184 C88.6763274,29.1185596 92.3666915,30.2793839 96.0504228,31.4454402 C101.94174,33.3105389 107.668837,34.23706 113.784069,34.8398788 C114.779907,34.9381496 115.779176,35.0000239 116.779359,35.0291412 C122.186709,35.186329 127.62242,34.4010722 132.795562,32.8808314 C135.902924,31.9675041 138.90439,30.707499 141.763593,29.1806613 C141.923467,29.0955843 142.082426,29.0091423 142.240699,28.9217905 C143.069573,28.4643306 143.880378,27.9754787 144.655503,27.4456806 C145.864048,26.6190226 147.029824,25.7275332 148.131329,24.7607484 C148.682311,24.2773559 149.217282,23.7750827 149.732355,23.2527914 C150.174238,22.8048857 150.74306,22.3494731 150.924662,21.7282285 C151.034904,21.3522061 150.976809,21.0485219 150.881434,20.6745468 C150.837291,20.5014354 150.721103,20.3531192 150.551851,20.4263674 C149.972738,20.677504 149.427931,21.0203145 148.862083,21.305118 C147.688074,21.8958804 146.494166,22.4470615 145.280818,22.9511545 C142.685555,24.029404 139.992859,24.8933685 137.29696,25.4095179 C129.71496,26.8610601 121.510619,27.3576463 113.858174,26.3073767 C106.197037,25.2559697 98.7973253,22.8997443 91.2269899,21.3870104 C88.8897212,20.9206788 86.5435325,20.4952935 84.1838494,20.1554402 C81.7978638,19.8117197 79.3979264,19.5548961 76.9897551,19.433195 C74.5877592,19.3117213 72.1775294,19.3251426 69.7798792,19.5214568 C67.4215684,19.7091268 65.0897889,20.1251855 62.7360525,20.3576688 C62.6852771,20.3626733 62.6260392,20.3640382 62.5928751,20.3255943 C62.5427858,20.2673597 62.5965346,20.1804628 62.6479961,20.1233656 C62.9574515,19.7810101 63.2575294,19.4193188 63.5464002,19.0426139" id="Fill-1"></path>
                </g>
                <path d="M204.596576,50.1679005 C205.853153,49.5063921 206.968153,48.5111724 206.985078,46.6763284 C207.005891,44.4347524 205.7715,43.6913517 202.256105,43.6592772 L199.893678,43.6376667 L199.833982,50.124452 L204.596576,50.1679005 Z M196.946647,59.2600004 L197.113382,41.2468646 L202.277834,41.2941802 C207.197328,41.339221 209.815691,43.0546385 209.783213,46.5919338 C209.763315,48.7181781 208.497818,50.5036592 206.119609,51.4577052 L211.65344,59.1053148 L211.650924,59.3946679 L208.557971,59.3664605 L203.708693,52.554153 L199.811568,52.5184389 L199.749128,59.285478 L196.946647,59.2600004 Z M187.351472,52.0045643 L184.411989,43.6515429 L181.176544,51.9481495 L187.351472,52.0045643 Z M175.738546,59.0657335 L175.741291,58.776608 L182.894445,41.1167467 L186.40275,41.1490487 L192.788097,58.9326584 L192.785353,59.221784 L189.860279,59.195169 L188.183776,54.377623 L180.261444,54.3050573 L178.379095,59.0900738 L175.738546,59.0657335 Z M166.528303,58.9813389 L166.672853,43.3335276 L160.253198,43.2746105 L160.275155,40.909741 L175.801444,41.0519152 L175.779487,43.4167848 L169.463441,43.3590052 L169.318662,59.0068165 L166.528303,58.9813389 Z M143.706826,57.9397135 L143.730613,55.3796671 L144.01491,55.3823969 C145.690497,56.1305746 147.798591,56.6924473 149.591739,56.7088257 C152.814146,56.738398 154.37103,55.7663811 154.386811,54.0682519 C154.402364,52.3887759 153.082204,51.6133007 151.185217,50.9545221 L148.255798,49.9520231 C145.659849,49.030279 144.378571,47.4952521 144.399156,45.2693721 C144.427974,42.1667888 147.385526,40.5018715 151.572894,40.5403154 C153.26129,40.5555565 155.762778,41.0148362 156.909113,41.5908125 L156.886927,43.9757002 L156.596684,43.9731979 C154.951973,43.3494511 152.864464,42.9663768 151.55048,42.9543204 C148.831938,42.9295252 147.20278,43.4443097 147.187227,45.1460786 C147.172818,46.6979389 148.391656,47.2104487 149.817026,47.7015754 L152.610816,48.7286421 C155.255711,49.6615327 157.216738,51.0097995 157.189292,53.970891 C157.159559,57.2008624 154.196746,59.1560426 149.569554,59.1135041 C147.348474,59.093031 145.376239,58.658319 143.706826,57.9397135 L143.706826,57.9397135 Z M137.511086,49.7070284 C137.547452,45.7802895 135.354733,42.8060042 131.154785,42.7675603 C126.922131,42.7286614 124.67452,45.6624555 124.638154,49.5891944 C124.601787,53.5159334 126.794506,56.5000002 131.02739,56.5386716 C135.227109,56.577343 137.47472,53.6335399 137.511086,49.7070284 L137.511086,49.7070284 Z M121.699814,49.5623519 C121.744185,44.7761981 125.015538,40.2969131 131.1772,40.3533279 C137.311644,40.4097426 140.493339,44.9479446 140.448968,49.7338709 C140.404597,54.5327636 137.139419,58.9995372 131.004975,58.9435774 C124.843542,58.8871627 121.655443,54.3612446 121.699814,49.5623519 L121.699814,49.5623519 Z M112.627488,49.325774 C113.8955,48.6642656 115.011415,47.6690459 115.028569,45.8342019 C115.049154,43.5926259 113.806529,42.8492252 110.299597,42.8173782 L107.930536,42.7955402 L107.870612,49.282098 L112.627488,49.325774 Z M104.995856,58.4181014 L105.162592,40.4049655 L110.321554,40.4520537 C115.233272,40.4970945 117.863528,42.2127395 117.83105,45.7500348 C117.81138,47.8762791 116.539937,49.6613052 114.175222,50.6158062 L119.689841,58.2631883 L119.687325,58.5523139 L116.607409,58.5241065 L111.756987,51.7120265 L107.848426,51.6763124 L107.785758,58.443579 L104.995856,58.4181014 Z M84.0075536,51.1983794 L84.1093331,40.2120635 L86.8928306,40.2377686 L86.7937957,50.9406459 C86.7663495,53.8851315 88.0140059,56.1446783 91.9426942,56.1808475 C95.722487,56.2154242 96.8484654,54.1342207 96.8770552,51.0330023 L96.9760901,40.3298975 L99.764848,40.3553752 L99.6630685,51.3416911 C99.6241865,55.5516411 97.233169,58.6342063 91.6355259,58.5830235 C86.1600183,58.5327507 83.9714162,55.1217062 84.0075536,51.1983794 L84.0075536,51.1983794 Z M66.6304788,58.0666467 L66.7972142,40.0535108 L78.8415013,40.163838 L78.8195444,42.5289351 L69.5642439,42.4440855 L69.5185003,47.3885646 L77.6286101,47.4627226 L77.6061957,49.8805947 L69.4960859,49.8064367 L69.4414224,55.7202029 L79.2275772,55.8098295 L79.2056203,58.1817509 L66.6304788,58.0666467 Z" id="Fill-4" fill="#FADB00"></path>
                <polygon id="Fill-6" fill="#FADB00" points="214.773198 45.913774 214.807735 42.1733402 213.551845 42.1617388 213.558935 41.3744347 217.066782 41.4067367 217.059463 42.1938133 215.810892 42.1824394 215.776355 45.9228732"></polygon>
                <polygon id="Fill-8" fill="#FADB00" points="221.730775 45.9773089 221.758679 42.9525233 220.570032 44.8028358 220.071427 44.7982863 218.9363 42.9657171 218.908625 45.9516038 217.957387 45.9429596 217.999471 41.4149941 219.105322 41.4252307 220.451327 43.5783175 221.817688 41.4502534 222.77533 41.4588976 222.733475 45.9866355"></polygon>
            </g>
        </g>
    </g>
</svg>
